<svg xmlns="http://www.w3.org/2000/svg" viewBox="0 0 512 512" width="512" height="512">
  <circle cx="256" cy="256" r="250" fill="#3a3a3a"/>
  <circle cx="256" cy="256" r="248" fill="none" stroke="#555" stroke-width="1.5"/>
  <circle cx="256" cy="256" r="240" fill="none" stroke="#444" stroke-width="14"/>
  <g stroke="#555" stroke-width="1.5" opacity="0.7"><line x1="256" y1="10" x2="256" y2="28" transform="rotate(0 256 256)"/><line x1="256" y1="10" x2="256" y2="28" transform="rotate(5 256 256)"/><line x1="256" y1="10" x2="256" y2="28" transform="rotate(10 256 256)"/><line x1="256" y1="10" x2="256" y2="28" transform="rotate(15 256 256)"/><line x1="256" y1="10" x2="256" y2="28" transform="rotate(20 256 256)"/><line x1="256" y1="10" x2="256" y2="28" transform="rotate(25 256 256)"/><line x1="256" y1="10" x2="256" y2="28" transform="rotate(30 256 256)"/><line x1="256" y1="10" x2="256" y2="28" transform="rotate(35 256 256)"/><line x1="256" y1="10" x2="256" y2="28" transform="rotate(40 256 256)"/><line x1="256" y1="10" x2="256" y2="28" transform="rotate(45 256 256)"/><line x1="256" y1="10" x2="256" y2="28" transform="rotate(50 256 256)"/><line x1="256" y1="10" x2="256" y2="28" transform="rotate(55 256 256)"/><line x1="256" y1="10" x2="256" y2="28" transform="rotate(60 256 256)"/><line x1="256" y1="10" x2="256" y2="28" transform="rotate(65 256 256)"/><line x1="256" y1="10" x2="256" y2="28" transform="rotate(70 256 256)"/><line x1="256" y1="10" x2="256" y2="28" transform="rotate(75 256 256)"/><line x1="256" y1="10" x2="256" y2="28" transform="rotate(80 256 256)"/><line x1="256" y1="10" x2="256" y2="28" transform="rotate(85 256 256)"/><line x1="256" y1="10" x2="256" y2="28" transform="rotate(90 256 256)"/><line x1="256" y1="10" x2="256" y2="28" transform="rotate(95 256 256)"/><line x1="256" y1="10" x2="256" y2="28" transform="rotate(100 256 256)"/><line x1="256" y1="10" x2="256" y2="28" transform="rotate(105 256 256)"/><line x1="256" y1="10" x2="256" y2="28" transform="rotate(110 256 256)"/><line x1="256" y1="10" x2="256" y2="28" transform="rotate(115 256 256)"/><line x1="256" y1="10" x2="256" y2="28" transform="rotate(120 256 256)"/><line x1="256" y1="10" x2="256" y2="28" transform="rotate(125 256 256)"/><line x1="256" y1="10" x2="256" y2="28" transform="rotate(130 256 256)"/><line x1="256" y1="10" x2="256" y2="28" transform="rotate(135 256 256)"/><line x1="256" y1="10" x2="256" y2="28" transform="rotate(140 256 256)"/><line x1="256" y1="10" x2="256" y2="28" transform="rotate(145 256 256)"/><line x1="256" y1="10" x2="256" y2="28" transform="rotate(150 256 256)"/><line x1="256" y1="10" x2="256" y2="28" transform="rotate(155 256 256)"/><line x1="256" y1="10" x2="256" y2="28" transform="rotate(160 256 256)"/><line x1="256" y1="10" x2="256" y2="28" transform="rotate(165 256 256)"/><line x1="256" y1="10" x2="256" y2="28" transform="rotate(170 256 256)"/><line x1="256" y1="10" x2="256" y2="28" transform="rotate(175 256 256)"/><line x1="256" y1="10" x2="256" y2="28" transform="rotate(180 256 256)"/><line x1="256" y1="10" x2="256" y2="28" transform="rotate(185 256 256)"/><line x1="256" y1="10" x2="256" y2="28" transform="rotate(190 256 256)"/><line x1="256" y1="10" x2="256" y2="28" transform="rotate(195 256 256)"/><line x1="256" y1="10" x2="256" y2="28" transform="rotate(200 256 256)"/><line x1="256" y1="10" x2="256" y2="28" transform="rotate(205 256 256)"/><line x1="256" y1="10" x2="256" y2="28" transform="rotate(210 256 256)"/><line x1="256" y1="10" x2="256" y2="28" transform="rotate(215 256 256)"/><line x1="256" y1="10" x2="256" y2="28" transform="rotate(220 256 256)"/><line x1="256" y1="10" x2="256" y2="28" transform="rotate(225 256 256)"/><line x1="256" y1="10" x2="256" y2="28" transform="rotate(230 256 256)"/><line x1="256" y1="10" x2="256" y2="28" transform="rotate(235 256 256)"/><line x1="256" y1="10" x2="256" y2="28" transform="rotate(240 256 256)"/><line x1="256" y1="10" x2="256" y2="28" transform="rotate(245 256 256)"/><line x1="256" y1="10" x2="256" y2="28" transform="rotate(250 256 256)"/><line x1="256" y1="10" x2="256" y2="28" transform="rotate(255 256 256)"/><line x1="256" y1="10" x2="256" y2="28" transform="rotate(260 256 256)"/><line x1="256" y1="10" x2="256" y2="28" transform="rotate(265 256 256)"/><line x1="256" y1="10" x2="256" y2="28" transform="rotate(270 256 256)"/><line x1="256" y1="10" x2="256" y2="28" transform="rotate(275 256 256)"/><line x1="256" y1="10" x2="256" y2="28" transform="rotate(280 256 256)"/><line x1="256" y1="10" x2="256" y2="28" transform="rotate(285 256 256)"/><line x1="256" y1="10" x2="256" y2="28" transform="rotate(290 256 256)"/><line x1="256" y1="10" x2="256" y2="28" transform="rotate(295 256 256)"/><line x1="256" y1="10" x2="256" y2="28" transform="rotate(300 256 256)"/><line x1="256" y1="10" x2="256" y2="28" transform="rotate(305 256 256)"/><line x1="256" y1="10" x2="256" y2="28" transform="rotate(310 256 256)"/><line x1="256" y1="10" x2="256" y2="28" transform="rotate(315 256 256)"/><line x1="256" y1="10" x2="256" y2="28" transform="rotate(320 256 256)"/><line x1="256" y1="10" x2="256" y2="28" transform="rotate(325 256 256)"/><line x1="256" y1="10" x2="256" y2="28" transform="rotate(330 256 256)"/><line x1="256" y1="10" x2="256" y2="28" transform="rotate(335 256 256)"/><line x1="256" y1="10" x2="256" y2="28" transform="rotate(340 256 256)"/><line x1="256" y1="10" x2="256" y2="28" transform="rotate(345 256 256)"/><line x1="256" y1="10" x2="256" y2="28" transform="rotate(350 256 256)"/><line x1="256" y1="10" x2="256" y2="28" transform="rotate(355 256 256)"/></g>
  <circle cx="256" cy="256" r="224" fill="#2a2a2a"/>
  <circle cx="256" cy="256" r="222" fill="none" stroke="#444" stroke-width="1"/>
  <circle cx="256" cy="256" r="212" fill="#303030"/>
  <circle cx="256" cy="256" r="210" fill="none" stroke="#484848" stroke-width="1"/>
  <circle cx="256" cy="256" r="197" fill="none" stroke="#e53030" stroke-width="5"/>
  <circle cx="256" cy="256" r="189" fill="#222"/>
  <circle cx="256" cy="256" r="187" fill="none" stroke="#333" stroke-width="1"/>
  <circle cx="256" cy="256" r="172" fill="#1a1a1a"/>
  <circle cx="256" cy="256" r="170" fill="none" stroke="#444" stroke-width="1.5"/>
  <defs>
    <radialGradient id="lg" cx="40%" cy="35%" r="60%"><stop offset="0%" stop-color="#2e2e5a"/><stop offset="25%" stop-color="#1e1e40"/><stop offset="55%" stop-color="#141428"/><stop offset="100%" stop-color="#0e0e18"/></radialGradient>
    <radialGradient id="lr" cx="35%" cy="30%" r="55%"><stop offset="0%" stop-color="#7c6ccc" stop-opacity="0.45"/><stop offset="35%" stop-color="#5040a0" stop-opacity="0.25"/><stop offset="70%" stop-color="#302070" stop-opacity="0.1"/><stop offset="100%" stop-color="transparent" stop-opacity="0"/></radialGradient>
    <radialGradient id="ch" cx="42%" cy="38%" r="30%"><stop offset="0%" stop-color="#fff" stop-opacity="0.18"/><stop offset="60%" stop-color="#fff" stop-opacity="0.05"/><stop offset="100%" stop-color="transparent" stop-opacity="0"/></radialGradient>
    <linearGradient id="bs" x1="0%" y1="0%" x2="100%" y2="100%"><stop offset="0%" stop-color="#fff" stop-opacity="0.08"/><stop offset="50%" stop-color="#fff" stop-opacity="0"/><stop offset="100%" stop-color="#fff" stop-opacity="0.04"/></linearGradient>
    <clipPath id="gc"><circle cx="256" cy="256" r="165"/></clipPath>
    <filter id="fB" x="-50%" y="-50%" width="200%" height="200%"><feGaussianBlur stdDeviation="6 3"/></filter>
    <filter id="fW" x="-50%" y="-50%" width="200%" height="200%"><feGaussianBlur stdDeviation="12 6"/></filter>
    <filter id="fX" x="-50%" y="-50%" width="200%" height="200%"><feGaussianBlur stdDeviation="18 8"/></filter>
    <filter id="fS" x="-50%" y="-50%" width="200%" height="200%"><feGaussianBlur stdDeviation="4"/></filter>
    <linearGradient id="sF" x1="0%" y1="50%" x2="100%" y2="50%"><stop offset="0%" stop-color="#fff" stop-opacity="0"/><stop offset="25%" stop-color="#d0c0ff" stop-opacity="0.3"/><stop offset="50%" stop-color="#fff" stop-opacity="0.5"/><stop offset="75%" stop-color="#d0c0ff" stop-opacity="0.3"/><stop offset="100%" stop-color="#fff" stop-opacity="0"/></linearGradient>
    <radialGradient id="fC" cx="50%" cy="50%" r="50%"><stop offset="0%" stop-color="#fff" stop-opacity="0.7"/><stop offset="25%" stop-color="#ddd4ff" stop-opacity="0.4"/><stop offset="100%" stop-color="transparent" stop-opacity="0"/></radialGradient>
  </defs>
  <circle cx="256" cy="256" r="165" fill="url(#lg)"/>
  <polygon points="256,112 310,138 342,192 342,320 310,374 202,374 170,320 170,192 202,138" fill="none" stroke="#282840" stroke-width="2" opacity="0.5"/>
  <polygon points="256,125 304,148 332,198 332,314 304,364 208,364 180,314 180,198 208,148" fill="#0c0c18" opacity="0.35"/>
  <circle cx="256" cy="256" r="165" fill="url(#lr)"/>
  <circle cx="256" cy="256" r="165" fill="url(#ch)"/>
  <circle cx="256" cy="256" r="120" fill="none" stroke="#2a2a40" stroke-width="1" opacity="0.6"/>
  <circle cx="256" cy="256" r="80" fill="none" stroke="#222238" stroke-width="0.8" opacity="0.4"/>
  <ellipse cx="215" cy="205" rx="45" ry="28" fill="#fff" opacity="0.09" transform="rotate(-25 215 205)"/>
  <ellipse cx="300" cy="310" rx="20" ry="12" fill="#fff" opacity="0.05" transform="rotate(30 300 310)"/>
  <g clip-path="url(#gc)"><g>
    <ellipse cx="0" cy="0" rx="70" ry="70" fill="url(#fC)" opacity="0.6"/>
    <g><path d="M-160,0 Q0,8 160,0" fill="none" stroke="url(#sF)" stroke-width="10" stroke-linecap="round" filter="url(#fB)"><animate attributeName="d" values="M-160,0 Q0,8 160,0;M-160,0 Q0,-45 160,0;M-160,0 Q0,8 160,0" dur="10s" repeatCount="indefinite" calcMode="spline" keySplines="0.4 0 0.6 1;0.4 0 0.6 1"/></path>
    <path d="M-160,0 Q0,8 160,0" fill="none" stroke="url(#sF)" stroke-width="30" stroke-linecap="round" opacity="0.2" filter="url(#fW)"><animate attributeName="d" values="M-160,0 Q0,8 160,0;M-160,0 Q0,-45 160,0;M-160,0 Q0,8 160,0" dur="10s" repeatCount="indefinite" calcMode="spline" keySplines="0.4 0 0.6 1;0.4 0 0.6 1"/></path>
    <animateTransform attributeName="transform" type="rotate" values="-40;-15;-40" dur="10s" repeatCount="indefinite" calcMode="spline" keySplines="0.4 0 0.6 1;0.4 0 0.6 1"/></g>
    <animateTransform attributeName="transform" type="translate" values="140,160;370,350;140,160" dur="10s" repeatCount="indefinite" calcMode="spline" keySplines="0.4 0 0.6 1;0.4 0 0.6 1"/>
  </g></g>
  <circle cx="256" cy="256" r="250" fill="url(#bs)"/>
  <circle cx="256" cy="256" r="250" fill="none" stroke="#666" stroke-width="1.5"/>
  <circle cx="256" cy="256" r="251" fill="none" stroke="#888" stroke-width="0.5" opacity="0.3"/>
</svg>