<svg xmlns="http://www.w3.org/2000/svg" viewBox="0 0 512 512" width="512" height="512">
  <circle cx="256" cy="256" r="250" fill="#e8e8e8"/>
  <circle cx="256" cy="256" r="248" fill="none" stroke="#bbb" stroke-width="1.5"/>
  <circle cx="256" cy="256" r="240" fill="none" stroke="#ccc" stroke-width="14"/>
  <g stroke="#bbb" stroke-width="1.5" opacity="0.7"><line x1="256" y1="10" x2="256" y2="28" transform="rotate(0 256 256)"/><line x1="256" y1="10" x2="256" y2="28" transform="rotate(5 256 256)"/><line x1="256" y1="10" x2="256" y2="28" transform="rotate(10 256 256)"/><line x1="256" y1="10" x2="256" y2="28" transform="rotate(15 256 256)"/><line x1="256" y1="10" x2="256" y2="28" transform="rotate(20 256 256)"/><line x1="256" y1="10" x2="256" y2="28" transform="rotate(25 256 256)"/><line x1="256" y1="10" x2="256" y2="28" transform="rotate(30 256 256)"/><line x1="256" y1="10" x2="256" y2="28" transform="rotate(35 256 256)"/><line x1="256" y1="10" x2="256" y2="28" transform="rotate(40 256 256)"/><line x1="256" y1="10" x2="256" y2="28" transform="rotate(45 256 256)"/><line x1="256" y1="10" x2="256" y2="28" transform="rotate(50 256 256)"/><line x1="256" y1="10" x2="256" y2="28" transform="rotate(55 256 256)"/><line x1="256" y1="10" x2="256" y2="28" transform="rotate(60 256 256)"/><line x1="256" y1="10" x2="256" y2="28" transform="rotate(65 256 256)"/><line x1="256" y1="10" x2="256" y2="28" transform="rotate(70 256 256)"/><line x1="256" y1="10" x2="256" y2="28" transform="rotate(75 256 256)"/><line x1="256" y1="10" x2="256" y2="28" transform="rotate(80 256 256)"/><line x1="256" y1="10" x2="256" y2="28" transform="rotate(85 256 256)"/><line x1="256" y1="10" x2="256" y2="28" transform="rotate(90 256 256)"/><line x1="256" y1="10" x2="256" y2="28" transform="rotate(95 256 256)"/><line x1="256" y1="10" x2="256" y2="28" transform="rotate(100 256 256)"/><line x1="256" y1="10" x2="256" y2="28" transform="rotate(105 256 256)"/><line x1="256" y1="10" x2="256" y2="28" transform="rotate(110 256 256)"/><line x1="256" y1="10" x2="256" y2="28" transform="rotate(115 256 256)"/><line x1="256" y1="10" x2="256" y2="28" transform="rotate(120 256 256)"/><line x1="256" y1="10" x2="256" y2="28" transform="rotate(125 256 256)"/><line x1="256" y1="10" x2="256" y2="28" transform="rotate(130 256 256)"/><line x1="256" y1="10" x2="256" y2="28" transform="rotate(135 256 256)"/><line x1="256" y1="10" x2="256" y2="28" transform="rotate(140 256 256)"/><line x1="256" y1="10" x2="256" y2="28" transform="rotate(145 256 256)"/><line x1="256" y1="10" x2="256" y2="28" transform="rotate(150 256 256)"/><line x1="256" y1="10" x2="256" y2="28" transform="rotate(155 256 256)"/><line x1="256" y1="10" x2="256" y2="28" transform="rotate(160 256 256)"/><line x1="256" y1="10" x2="256" y2="28" transform="rotate(165 256 256)"/><line x1="256" y1="10" x2="256" y2="28" transform="rotate(170 256 256)"/><line x1="256" y1="10" x2="256" y2="28" transform="rotate(175 256 256)"/><line x1="256" y1="10" x2="256" y2="28" transform="rotate(180 256 256)"/><line x1="256" y1="10" x2="256" y2="28" transform="rotate(185 256 256)"/><line x1="256" y1="10" x2="256" y2="28" transform="rotate(190 256 256)"/><line x1="256" y1="10" x2="256" y2="28" transform="rotate(195 256 256)"/><line x1="256" y1="10" x2="256" y2="28" transform="rotate(200 256 256)"/><line x1="256" y1="10" x2="256" y2="28" transform="rotate(205 256 256)"/><line x1="256" y1="10" x2="256" y2="28" transform="rotate(210 256 256)"/><line x1="256" y1="10" x2="256" y2="28" transform="rotate(215 256 256)"/><line x1="256" y1="10" x2="256" y2="28" transform="rotate(220 256 256)"/><line x1="256" y1="10" x2="256" y2="28" transform="rotate(225 256 256)"/><line x1="256" y1="10" x2="256" y2="28" transform="rotate(230 256 256)"/><line x1="256" y1="10" x2="256" y2="28" transform="rotate(235 256 256)"/><line x1="256" y1="10" x2="256" y2="28" transform="rotate(240 256 256)"/><line x1="256" y1="10" x2="256" y2="28" transform="rotate(245 256 256)"/><line x1="256" y1="10" x2="256" y2="28" transform="rotate(250 256 256)"/><line x1="256" y1="10" x2="256" y2="28" transform="rotate(255 256 256)"/><line x1="256" y1="10" x2="256" y2="28" transform="rotate(260 256 256)"/><line x1="256" y1="10" x2="256" y2="28" transform="rotate(265 256 256)"/><line x1="256" y1="10" x2="256" y2="28" transform="rotate(270 256 256)"/><line x1="256" y1="10" x2="256" y2="28" transform="rotate(275 256 256)"/><line x1="256" y1="10" x2="256" y2="28" transform="rotate(280 256 256)"/><line x1="256" y1="10" x2="256" y2="28" transform="rotate(285 256 256)"/><line x1="256" y1="10" x2="256" y2="28" transform="rotate(290 256 256)"/><line x1="256" y1="10" x2="256" y2="28" transform="rotate(295 256 256)"/><line x1="256" y1="10" x2="256" y2="28" transform="rotate(300 256 256)"/><line x1="256" y1="10" x2="256" y2="28" transform="rotate(305 256 256)"/><line x1="256" y1="10" x2="256" y2="28" transform="rotate(310 256 256)"/><line x1="256" y1="10" x2="256" y2="28" transform="rotate(315 256 256)"/><line x1="256" y1="10" x2="256" y2="28" transform="rotate(320 256 256)"/><line x1="256" y1="10" x2="256" y2="28" transform="rotate(325 256 256)"/><line x1="256" y1="10" x2="256" y2="28" transform="rotate(330 256 256)"/><line x1="256" y1="10" x2="256" y2="28" transform="rotate(335 256 256)"/><line x1="256" y1="10" x2="256" y2="28" transform="rotate(340 256 256)"/><line x1="256" y1="10" x2="256" y2="28" transform="rotate(345 256 256)"/><line x1="256" y1="10" x2="256" y2="28" transform="rotate(350 256 256)"/><line x1="256" y1="10" x2="256" y2="28" transform="rotate(355 256 256)"/></g>
  <circle cx="256" cy="256" r="224" fill="#d8d8d8"/>
  <circle cx="256" cy="256" r="222" fill="none" stroke="#ccc" stroke-width="1"/>
  <circle cx="256" cy="256" r="212" fill="#e0e0e0"/>
  <circle cx="256" cy="256" r="210" fill="none" stroke="#c0c0c0" stroke-width="1"/>
  <circle cx="256" cy="256" r="197" fill="none" stroke="#e53030" stroke-width="5"/>
  <circle cx="256" cy="256" r="189" fill="#d0d0d0"/>
  <circle cx="256" cy="256" r="187" fill="none" stroke="#bbb" stroke-width="1"/>
  <circle cx="256" cy="256" r="172" fill="#c8c8c8"/>
  <circle cx="256" cy="256" r="170" fill="none" stroke="#ccc" stroke-width="1.5"/>

  <defs>
    <radialGradient id="lg" cx="40%" cy="35%" r="60%">
      <stop offset="0%" stop-color="#c8c8e0"/><stop offset="25%" stop-color="#d0d0e8"/>
      <stop offset="55%" stop-color="#dcdcf0"/><stop offset="100%" stop-color="#e4e4f4"/>
    </radialGradient>
    <radialGradient id="lr" cx="35%" cy="30%" r="55%">
      <stop offset="0%" stop-color="#7c6ccc" stop-opacity="0.45"/>
      <stop offset="35%" stop-color="#5040a0" stop-opacity="0.25"/>
      <stop offset="70%" stop-color="#302070" stop-opacity="0.1"/>
      <stop offset="100%" stop-color="transparent" stop-opacity="0"/>
    </radialGradient>
    <radialGradient id="ch" cx="42%" cy="38%" r="30%">
      <stop offset="0%" stop-color="#fff" stop-opacity="0.18"/>
      <stop offset="60%" stop-color="#fff" stop-opacity="0.05"/>
      <stop offset="100%" stop-color="transparent" stop-opacity="0"/>
    </radialGradient>
    <linearGradient id="bs" x1="0%" y1="0%" x2="100%" y2="100%">
      <stop offset="0%" stop-color="#fff" stop-opacity="0.08"/>
      <stop offset="50%" stop-color="#fff" stop-opacity="0"/>
      <stop offset="100%" stop-color="#fff" stop-opacity="0.04"/>
    </linearGradient>
    <clipPath id="gc"><circle cx="256" cy="256" r="165"/></clipPath>
    <radialGradient id="fc" cx="50%" cy="50%" r="50%">
      <stop offset="0%" stop-color="#fff" stop-opacity="0.95"/>
      <stop offset="12%" stop-color="#fff" stop-opacity="0.75"/>
      <stop offset="30%" stop-color="#e0d4ff" stop-opacity="0.45"/>
      <stop offset="55%" stop-color="#9080dd" stop-opacity="0.15"/>
      <stop offset="100%" stop-color="transparent" stop-opacity="0"/>
    </radialGradient>
    <linearGradient id="sf" x1="0%" y1="50%" x2="100%" y2="50%">
      <stop offset="0%" stop-color="#fff" stop-opacity="0"/>
      <stop offset="12%" stop-color="#d8c8ff" stop-opacity="0.25"/>
      <stop offset="30%" stop-color="#fff" stop-opacity="0.65"/>
      <stop offset="50%" stop-color="#fff" stop-opacity="0.80"/>
      <stop offset="70%" stop-color="#fff" stop-opacity="0.65"/>
      <stop offset="88%" stop-color="#d8c8ff" stop-opacity="0.25"/>
      <stop offset="100%" stop-color="#fff" stop-opacity="0"/>
    </linearGradient>
    <linearGradient id="sw" x1="0%" y1="50%" x2="100%" y2="50%">
      <stop offset="0%" stop-color="#ffa060" stop-opacity="0"/>
      <stop offset="25%" stop-color="#ffa060" stop-opacity="0.25"/>
      <stop offset="50%" stop-color="#ffaa60" stop-opacity="0.35"/>
      <stop offset="75%" stop-color="#ffa060" stop-opacity="0.25"/>
      <stop offset="100%" stop-color="#ffa060" stop-opacity="0"/>
    </linearGradient>
    <linearGradient id="sc" x1="0%" y1="50%" x2="100%" y2="50%">
      <stop offset="0%" stop-color="#6080ff" stop-opacity="0"/>
      <stop offset="25%" stop-color="#6080ff" stop-opacity="0.25"/>
      <stop offset="50%" stop-color="#6088ff" stop-opacity="0.35"/>
      <stop offset="75%" stop-color="#6080ff" stop-opacity="0.25"/>
      <stop offset="100%" stop-color="#6080ff" stop-opacity="0"/>
    </linearGradient>
    <radialGradient id="gh" cx="50%" cy="50%" r="50%">
      <stop offset="55%" stop-color="transparent" stop-opacity="0"/>
      <stop offset="75%" stop-color="#7868bb" stop-opacity="0.18"/>
      <stop offset="88%" stop-color="#6858aa" stop-opacity="0.09"/>
      <stop offset="100%" stop-color="transparent" stop-opacity="0"/>
    </radialGradient>
    <filter id="fb" x="-50%" y="-50%" width="200%" height="200%"><feGaussianBlur stdDeviation="5 3"/></filter>
    <filter id="fw" x="-80%" y="-80%" width="260%" height="260%"><feGaussianBlur stdDeviation="12 6"/></filter>
    <filter id="fx" x="-100%" y="-100%" width="300%" height="300%"><feGaussianBlur stdDeviation="20 10"/></filter>
    <filter id="fs" x="-50%" y="-50%" width="200%" height="200%"><feGaussianBlur stdDeviation="3"/></filter>
    <filter id="bk" x="-80%" y="-80%" width="260%" height="260%"><feGaussianBlur stdDeviation="6"/></filter>
  </defs>

  <circle cx="256" cy="256" r="165" fill="url(#lg)"/>
  <polygon points="256,112 310,138 342,192 342,320 310,374 202,374 170,320 170,192 202,138"
           fill="none" stroke="#b0b0c8" stroke-width="2" opacity="0.5"/>
  <polygon points="256,125 304,148 332,198 332,314 304,364 208,364 180,314 180,198 208,148"
           fill="#d0d0e8" opacity="0.35"/>
  <circle cx="256" cy="256" r="165" fill="url(#lr)"/>
  <circle cx="256" cy="256" r="165" fill="url(#ch)"/>
  <circle cx="256" cy="256" r="120" fill="none" stroke="#b8b8d0" stroke-width="1" opacity="0.6"/>
  <circle cx="256" cy="256" r="80" fill="none" stroke="#c0c0d8" stroke-width="0.8" opacity="0.4"/>
  <ellipse cx="215" cy="205" rx="45" ry="28" fill="#fff" opacity="0.09" transform="rotate(-25 215 205)"/>
  <ellipse cx="300" cy="310" rx="20" ry="12" fill="#fff" opacity="0.05" transform="rotate(30 300 310)"/>

  <g clip-path="url(#gc)">
    <g>
      <g>
        <!-- Outer glow ellipse — brighter -->
        <ellipse cx="0" cy="0" fill="url(#fc)" opacity="0.6">
          <animate attributeName="rx" values="95;95;96;98;99;102;104;107;110;107;104;102;99;98;96;95;95;95;96;98;99;102;104;107;110;107;104;102;99;98;96;95;95" keyTimes="0.0000;0.0312;0.0625;0.0938;0.1250;0.1562;0.1875;0.2188;0.2500;0.2812;0.3125;0.3438;0.3750;0.4062;0.4375;0.4688;0.5000;0.5312;0.5625;0.5938;0.6250;0.6562;0.6875;0.7188;0.7500;0.7812;0.8125;0.8438;0.8750;0.9062;0.9375;0.9688;1.0000" dur="10s" repeatCount="indefinite" calcMode="linear"/>
          <animate attributeName="ry" values="45;46;50;56;64;74;85;97;110;97;85;74;64;56;50;46;45;46;50;56;64;74;85;97;110;97;85;74;64;56;50;46;45" keyTimes="0.0000;0.0312;0.0625;0.0938;0.1250;0.1562;0.1875;0.2188;0.2500;0.2812;0.3125;0.3438;0.3750;0.4062;0.4375;0.4688;0.5000;0.5312;0.5625;0.5938;0.6250;0.6562;0.6875;0.7188;0.7500;0.7812;0.8125;0.8438;0.8750;0.9062;0.9375;0.9688;1.0000" dur="10s" repeatCount="indefinite" calcMode="linear"/>
        </ellipse>
        <!-- Inner core ellipse — brighter -->
        <ellipse cx="0" cy="0" fill="url(#fc)" opacity="0.95">
          <animate attributeName="rx" values="50;50;51;52;53;54;56;58;60;58;56;54;53;52;51;50;50;50;51;52;53;54;56;58;60;58;56;54;53;52;51;50;50" keyTimes="0.0000;0.0312;0.0625;0.0938;0.1250;0.1562;0.1875;0.2188;0.2500;0.2812;0.3125;0.3438;0.3750;0.4062;0.4375;0.4688;0.5000;0.5312;0.5625;0.5938;0.6250;0.6562;0.6875;0.7188;0.7500;0.7812;0.8125;0.8438;0.8750;0.9062;0.9375;0.9688;1.0000" dur="10s" repeatCount="indefinite" calcMode="linear"/>
          <animate attributeName="ry" values="22;23;25;28;33;39;45;53;60;53;45;39;33;28;25;23;22;23;25;28;33;39;45;53;60;53;45;39;33;28;25;23;22" keyTimes="0.0000;0.0312;0.0625;0.0938;0.1250;0.1562;0.1875;0.2188;0.2500;0.2812;0.3125;0.3438;0.3750;0.4062;0.4375;0.4688;0.5000;0.5312;0.5625;0.5938;0.6250;0.6562;0.6875;0.7188;0.7500;0.7812;0.8125;0.8438;0.8750;0.9062;0.9375;0.9688;1.0000" dur="10s" repeatCount="indefinite" calcMode="linear"/>
        </ellipse>
        <ellipse cx="-22" cy="-16" rx="14" ry="14" fill="url(#fc)" opacity="0.35"/>

        <!-- Main streak — sharp core brighter -->
        <path d="M-33.9,0 Q43.4,-46.0 120.7,0" fill="none" stroke="url(#sf)" stroke-width="12" stroke-linecap="round" filter="url(#fb)">
          <animate attributeName="d" values="M-33.9,0 Q43.4,-46.0 120.7,0;M-39.0,0 Q42.3,-50.3 123.5,0;M-52.7,0 Q38.9,-61.8 130.5,0;M-71.7,0 Q33.7,-76.8 139.0,0;M-92.6,0 Q27.1,-89.9 146.8,0;M-112.9,0 Q19.8,-94.4 152.5,0;M-130.5,0 Q12.5,-83.9 155.4,0;M-143.8,0 Q5.7,-53.3 155.2,0;M-151.8,0 Q0.0,0.0 151.8,0;M-153.8,0 Q-4.3,53.2 145.1,0;M-149.9,0 Q-7.2,83.1 135.4,0;M-140.5,0 Q-8.8,92.2 122.9,0;M-126.6,0 Q-9.2,85.4 108.2,0;M-110.0,0 Q-9.0,69.6 92.0,0;M-93.2,0 Q-8.5,51.9 76.2,0;M-79.7,0 Q-8.0,38.4 63.8,0;M-74.3,0 Q-7.8,33.4 58.8,0;M-79.7,0 Q-8.0,38.4 63.8,0;M-93.2,0 Q-8.5,51.9 76.2,0;M-110.0,0 Q-9.0,69.6 92.0,0;M-126.6,0 Q-9.2,85.4 108.2,0;M-140.5,0 Q-8.8,92.2 122.9,0;M-149.9,0 Q-7.2,83.1 135.4,0;M-153.8,0 Q-4.3,53.2 145.1,0;M-151.8,0 Q-0.0,0.0 151.8,0;M-143.8,0 Q5.7,-53.3 155.2,0;M-130.5,0 Q12.5,-83.9 155.4,0;M-112.9,0 Q19.8,-94.4 152.5,0;M-92.6,0 Q27.1,-89.9 146.8,0;M-71.7,0 Q33.7,-76.8 139.0,0;M-52.7,0 Q38.9,-61.8 130.5,0;M-39.0,0 Q42.3,-50.3 123.5,0;M-33.9,0 Q43.4,-46.0 120.7,0" keyTimes="0.0000;0.0312;0.0625;0.0938;0.1250;0.1562;0.1875;0.2188;0.2500;0.2812;0.3125;0.3438;0.3750;0.4062;0.4375;0.4688;0.5000;0.5312;0.5625;0.5938;0.6250;0.6562;0.6875;0.7188;0.7500;0.7812;0.8125;0.8438;0.8750;0.9062;0.9375;0.9688;1.0000" dur="10s" repeatCount="indefinite" calcMode="linear"/>
        </path>
        <!-- Medium glow — brighter -->
        <path d="M-33.9,0 Q43.4,-46.0 120.7,0" fill="none" stroke="url(#sf)" stroke-width="32" stroke-linecap="round" opacity="0.4" filter="url(#fw)">
          <animate attributeName="d" values="M-33.9,0 Q43.4,-46.0 120.7,0;M-39.0,0 Q42.3,-50.3 123.5,0;M-52.7,0 Q38.9,-61.8 130.5,0;M-71.7,0 Q33.7,-76.8 139.0,0;M-92.6,0 Q27.1,-89.9 146.8,0;M-112.9,0 Q19.8,-94.4 152.5,0;M-130.5,0 Q12.5,-83.9 155.4,0;M-143.8,0 Q5.7,-53.3 155.2,0;M-151.8,0 Q0.0,0.0 151.8,0;M-153.8,0 Q-4.3,53.2 145.1,0;M-149.9,0 Q-7.2,83.1 135.4,0;M-140.5,0 Q-8.8,92.2 122.9,0;M-126.6,0 Q-9.2,85.4 108.2,0;M-110.0,0 Q-9.0,69.6 92.0,0;M-93.2,0 Q-8.5,51.9 76.2,0;M-79.7,0 Q-8.0,38.4 63.8,0;M-74.3,0 Q-7.8,33.4 58.8,0;M-79.7,0 Q-8.0,38.4 63.8,0;M-93.2,0 Q-8.5,51.9 76.2,0;M-110.0,0 Q-9.0,69.6 92.0,0;M-126.6,0 Q-9.2,85.4 108.2,0;M-140.5,0 Q-8.8,92.2 122.9,0;M-149.9,0 Q-7.2,83.1 135.4,0;M-153.8,0 Q-4.3,53.2 145.1,0;M-151.8,0 Q-0.0,0.0 151.8,0;M-143.8,0 Q5.7,-53.3 155.2,0;M-130.5,0 Q12.5,-83.9 155.4,0;M-112.9,0 Q19.8,-94.4 152.5,0;M-92.6,0 Q27.1,-89.9 146.8,0;M-71.7,0 Q33.7,-76.8 139.0,0;M-52.7,0 Q38.9,-61.8 130.5,0;M-39.0,0 Q42.3,-50.3 123.5,0;M-33.9,0 Q43.4,-46.0 120.7,0" keyTimes="0.0000;0.0312;0.0625;0.0938;0.1250;0.1562;0.1875;0.2188;0.2500;0.2812;0.3125;0.3438;0.3750;0.4062;0.4375;0.4688;0.5000;0.5312;0.5625;0.5938;0.6250;0.6562;0.6875;0.7188;0.7500;0.7812;0.8125;0.8438;0.8750;0.9062;0.9375;0.9688;1.0000" dur="10s" repeatCount="indefinite" calcMode="linear"/>
        </path>
        <!-- Wide bloom — brighter -->
        <path d="M-33.9,0 Q43.4,-46.0 120.7,0" fill="none" stroke="url(#sf)" stroke-width="60" stroke-linecap="round" opacity="0.18" filter="url(#fx)">
          <animate attributeName="d" values="M-33.9,0 Q43.4,-46.0 120.7,0;M-39.0,0 Q42.3,-50.3 123.5,0;M-52.7,0 Q38.9,-61.8 130.5,0;M-71.7,0 Q33.7,-76.8 139.0,0;M-92.6,0 Q27.1,-89.9 146.8,0;M-112.9,0 Q19.8,-94.4 152.5,0;M-130.5,0 Q12.5,-83.9 155.4,0;M-143.8,0 Q5.7,-53.3 155.2,0;M-151.8,0 Q0.0,0.0 151.8,0;M-153.8,0 Q-4.3,53.2 145.1,0;M-149.9,0 Q-7.2,83.1 135.4,0;M-140.5,0 Q-8.8,92.2 122.9,0;M-126.6,0 Q-9.2,85.4 108.2,0;M-110.0,0 Q-9.0,69.6 92.0,0;M-93.2,0 Q-8.5,51.9 76.2,0;M-79.7,0 Q-8.0,38.4 63.8,0;M-74.3,0 Q-7.8,33.4 58.8,0;M-79.7,0 Q-8.0,38.4 63.8,0;M-93.2,0 Q-8.5,51.9 76.2,0;M-110.0,0 Q-9.0,69.6 92.0,0;M-126.6,0 Q-9.2,85.4 108.2,0;M-140.5,0 Q-8.8,92.2 122.9,0;M-149.9,0 Q-7.2,83.1 135.4,0;M-153.8,0 Q-4.3,53.2 145.1,0;M-151.8,0 Q-0.0,0.0 151.8,0;M-143.8,0 Q5.7,-53.3 155.2,0;M-130.5,0 Q12.5,-83.9 155.4,0;M-112.9,0 Q19.8,-94.4 152.5,0;M-92.6,0 Q27.1,-89.9 146.8,0;M-71.7,0 Q33.7,-76.8 139.0,0;M-52.7,0 Q38.9,-61.8 130.5,0;M-39.0,0 Q42.3,-50.3 123.5,0;M-33.9,0 Q43.4,-46.0 120.7,0" keyTimes="0.0000;0.0312;0.0625;0.0938;0.1250;0.1562;0.1875;0.2188;0.2500;0.2812;0.3125;0.3438;0.3750;0.4062;0.4375;0.4688;0.5000;0.5312;0.5625;0.5938;0.6250;0.6562;0.6875;0.7188;0.7500;0.7812;0.8125;0.8438;0.8750;0.9062;0.9375;0.9688;1.0000" dur="10s" repeatCount="indefinite" calcMode="linear"/>
        </path>

        <!-- Warm fringe — brighter -->
        <path d="M-28.0,0 Q43.4,-36.8 114.8,0" fill="none" stroke="url(#sw)" stroke-width="5" stroke-linecap="round" opacity="0.8" filter="url(#fs)">
          <animate attributeName="d" values="M-28.0,0 Q43.4,-36.8 114.8,0;M-32.8,0 Q42.3,-40.2 117.3,0;M-45.8,0 Q38.9,-49.4 123.5,0;M-63.7,0 Q33.7,-61.5 131.0,0;M-83.5,0 Q27.1,-71.9 137.7,0;M-102.8,0 Q19.8,-75.5 142.4,0;M-119.6,0 Q12.5,-67.1 144.6,0;M-132.4,0 Q5.7,-42.6 143.9,0;M-140.2,0 Q0.0,0.0 140.2,0;M-142.5,0 Q-4.3,42.6 133.8,0;M-139.1,0 Q-7.2,66.5 124.6,0;M-130.5,0 Q-8.8,73.8 112.9,0;M-117.7,0 Q-9.2,68.3 99.2,0;M-102.4,0 Q-9.0,55.7 84.4,0;M-86.7,0 Q-8.5,41.5 69.8,0;M-74.2,0 Q-8.0,30.7 58.3,0;M-69.3,0 Q-7.8,26.7 53.7,0;M-74.2,0 Q-8.0,30.7 58.3,0;M-86.7,0 Q-8.5,41.5 69.8,0;M-102.4,0 Q-9.0,55.7 84.4,0;M-117.7,0 Q-9.2,68.3 99.2,0;M-130.5,0 Q-8.8,73.8 112.9,0;M-139.1,0 Q-7.2,66.5 124.6,0;M-142.5,0 Q-4.3,42.6 133.8,0;M-140.2,0 Q-0.0,0.0 140.2,0;M-132.4,0 Q5.7,-42.6 143.9,0;M-119.6,0 Q12.5,-67.1 144.6,0;M-102.8,0 Q19.8,-75.5 142.4,0;M-83.5,0 Q27.1,-71.9 137.7,0;M-63.7,0 Q33.7,-61.5 131.0,0;M-45.8,0 Q38.9,-49.4 123.5,0;M-32.8,0 Q42.3,-40.2 117.3,0;M-28.0,0 Q43.4,-36.8 114.8,0" keyTimes="0.0000;0.0312;0.0625;0.0938;0.1250;0.1562;0.1875;0.2188;0.2500;0.2812;0.3125;0.3438;0.3750;0.4062;0.4375;0.4688;0.5000;0.5312;0.5625;0.5938;0.6250;0.6562;0.6875;0.7188;0.7500;0.7812;0.8125;0.8438;0.8750;0.9062;0.9375;0.9688;1.0000" dur="10s" repeatCount="indefinite" calcMode="linear"/>
        </path>
        <!-- Cool fringe — brighter -->
        <path d="M-38.1,0 Q43.4,-55.2 124.9,0" fill="none" stroke="url(#sc)" stroke-width="5" stroke-linecap="round" opacity="0.8" filter="url(#fs)">
          <animate attributeName="d" values="M-38.1,0 Q43.4,-55.2 124.9,0;M-43.4,0 Q42.3,-60.3 127.9,0;M-57.7,0 Q38.9,-74.1 135.5,0;M-77.4,0 Q33.7,-92.2 144.7,0;M-99.1,0 Q27.1,-107.9 153.3,0;M-120.1,0 Q19.8,-113.2 159.7,0;M-138.3,0 Q12.5,-100.6 163.2,0;M-152.0,0 Q5.7,-64.0 163.4,0;M-160.0,0 Q0.0,0.0 160.0,0;M-162.0,0 Q-4.3,63.8 153.3,0;M-157.7,0 Q-7.2,99.8 143.2,0;M-147.7,0 Q-8.8,110.6 130.1,0;M-133.0,0 Q-9.2,102.5 114.5,0;M-115.5,0 Q-9.0,83.5 97.5,0;M-97.8,0 Q-8.5,62.2 80.8,0;M-83.6,0 Q-8.0,46.1 67.7,0;M-78.0,0 Q-7.8,40.1 62.4,0;M-83.6,0 Q-8.0,46.1 67.7,0;M-97.8,0 Q-8.5,62.2 80.8,0;M-115.5,0 Q-9.0,83.5 97.5,0;M-133.0,0 Q-9.2,102.5 114.5,0;M-147.7,0 Q-8.8,110.6 130.1,0;M-157.7,0 Q-7.2,99.8 143.2,0;M-162.0,0 Q-4.3,63.8 153.3,0;M-160.0,0 Q-0.0,0.0 160.0,0;M-152.0,0 Q5.7,-64.0 163.4,0;M-138.3,0 Q12.5,-100.6 163.2,0;M-120.1,0 Q19.8,-113.2 159.7,0;M-99.1,0 Q27.1,-107.9 153.3,0;M-77.4,0 Q33.7,-92.2 144.7,0;M-57.7,0 Q38.9,-74.1 135.5,0;M-43.4,0 Q42.3,-60.3 127.9,0;M-38.1,0 Q43.4,-55.2 124.9,0" keyTimes="0.0000;0.0312;0.0625;0.0938;0.1250;0.1562;0.1875;0.2188;0.2500;0.2812;0.3125;0.3438;0.3750;0.4062;0.4375;0.4688;0.5000;0.5312;0.5625;0.5938;0.6250;0.6562;0.6875;0.7188;0.7500;0.7812;0.8125;0.8438;0.8750;0.9062;0.9375;0.9688;1.0000" dur="10s" repeatCount="indefinite" calcMode="linear"/>
        </path>

        <!-- Cross streak — brighter -->
        <path d="M0,-46.4 Q-18.4,0 0,46.4" fill="none" stroke="url(#sf)" stroke-width="6" stroke-linecap="round" opacity="0.45" filter="url(#fb)">
          <animate attributeName="d" values="M0,-46.4 Q-18.4,0 0,46.4;M0,-48.8 Q-20.1,0 0,48.8;M0,-55.0 Q-24.7,0 0,55.0;M0,-63.2 Q-30.7,0 0,63.2;M0,-71.8 Q-36.0,0 0,71.8;M0,-79.6 Q-37.7,0 0,79.6;M0,-85.8 Q-33.5,0 0,85.8;M0,-89.7 Q-21.3,0 0,89.7;M0,-91.1 Q0.0,0 0,91.1;M0,-89.7 Q21.3,0 0,89.7;M0,-85.6 Q33.3,0 0,85.6;M0,-79.0 Q36.9,0 0,79.0;M0,-70.4 Q34.2,0 0,70.4;M0,-60.6 Q27.8,0 0,60.6;M0,-50.8 Q20.7,0 0,50.8;M0,-43.0 Q15.4,0 0,43.0;M0,-39.9 Q13.4,0 0,39.9;M0,-43.0 Q15.4,0 0,43.0;M0,-50.8 Q20.7,0 0,50.8;M0,-60.6 Q27.8,0 0,60.6;M0,-70.4 Q34.2,0 0,70.4;M0,-79.0 Q36.9,0 0,79.0;M0,-85.6 Q33.3,0 0,85.6;M0,-89.7 Q21.3,0 0,89.7;M0,-91.1 Q0.0,0 0,91.1;M0,-89.7 Q-21.3,0 0,89.7;M0,-85.8 Q-33.5,0 0,85.8;M0,-79.6 Q-37.7,0 0,79.6;M0,-71.8 Q-36.0,0 0,71.8;M0,-63.2 Q-30.7,0 0,63.2;M0,-55.0 Q-24.7,0 0,55.0;M0,-48.8 Q-20.1,0 0,48.8;M0,-46.4 Q-18.4,0 0,46.4" keyTimes="0.0000;0.0312;0.0625;0.0938;0.1250;0.1562;0.1875;0.2188;0.2500;0.2812;0.3125;0.3438;0.3750;0.4062;0.4375;0.4688;0.5000;0.5312;0.5625;0.5938;0.6250;0.6562;0.6875;0.7188;0.7500;0.7812;0.8125;0.8438;0.8750;0.9062;0.9375;0.9688;1.0000" dur="10s" repeatCount="indefinite" calcMode="linear"/>
        </path>

        <!-- Bokeh circles: green & blue -->
        <circle cx="43" cy="-52" r="8" fill="#40cc80" opacity="0.18" filter="url(#bk)"/><circle cx="43" cy="-52" r="8" fill="none" stroke="#40cc80" stroke-width="1.5" opacity="0.324" filter="url(#fs)"/><circle cx="69" cy="-10" r="15" fill="#30bb70" opacity="0.15" filter="url(#bk)"/><circle cx="69" cy="-10" r="15" fill="none" stroke="#30bb70" stroke-width="1.5" opacity="0.270" filter="url(#fs)"/><circle cx="-63" cy="-45" r="11" fill="#50ddaa" opacity="0.12" filter="url(#bk)"/><circle cx="-63" cy="-45" r="11" fill="none" stroke="#50ddaa" stroke-width="1.5" opacity="0.216" filter="url(#fs)"/><circle cx="53" cy="59" r="10" fill="#4488ee" opacity="0.18" filter="url(#bk)"/><circle cx="53" cy="59" r="10" fill="none" stroke="#4488ee" stroke-width="1.5" opacity="0.324" filter="url(#fs)"/><circle cx="31" cy="28" r="9" fill="#3377dd" opacity="0.15" filter="url(#bk)"/><circle cx="31" cy="28" r="9" fill="none" stroke="#3377dd" stroke-width="1.5" opacity="0.270" filter="url(#fs)"/><circle cx="-113" cy="-57" r="14" fill="#5599ff" opacity="0.12" filter="url(#bk)"/><circle cx="-113" cy="-57" r="14" fill="none" stroke="#5599ff" stroke-width="1.5" opacity="0.216" filter="url(#fs)"/><circle cx="-61" cy="49" r="27" fill="#44ccaa" opacity="0.14" filter="url(#bk)"/><circle cx="-61" cy="49" r="27" fill="none" stroke="#44ccaa" stroke-width="1.5" opacity="0.252" filter="url(#fs)"/><circle cx="-114" cy="63" r="14" fill="#6699ee" opacity="0.11" filter="url(#bk)"/><circle cx="-114" cy="63" r="14" fill="none" stroke="#6699ee" stroke-width="1.5" opacity="0.198" filter="url(#fs)"/><circle cx="63" cy="59" r="21" fill="#55ee99" opacity="0.1" filter="url(#bk)"/><circle cx="63" cy="59" r="21" fill="none" stroke="#55ee99" stroke-width="1.5" opacity="0.180" filter="url(#fs)"/><circle cx="-64" cy="34" r="26" fill="#3366cc" opacity="0.16" filter="url(#bk)"/><circle cx="-64" cy="34" r="26" fill="none" stroke="#3366cc" stroke-width="1.5" opacity="0.288" filter="url(#fs)"/><circle cx="-49" cy="-79" r="13" fill="#44bb88" opacity="0.12" filter="url(#bk)"/><circle cx="-49" cy="-79" r="13" fill="none" stroke="#44bb88" stroke-width="1.5" opacity="0.216" filter="url(#fs)"/><circle cx="58" cy="28" r="18" fill="#5588dd" opacity="0.11" filter="url(#bk)"/><circle cx="58" cy="28" r="18" fill="none" stroke="#5588dd" stroke-width="1.5" opacity="0.198" filter="url(#fs)"/>

        <circle cx="0" cy="0" r="80" fill="none" stroke="#8070cc" stroke-width="1.5">
          <animate attributeName="opacity" values="0.350;0.343;0.323;0.291;0.247;0.194;0.134;0.068;0.000;0.068;0.134;0.194;0.247;0.291;0.323;0.343;0.350;0.343;0.323;0.291;0.247;0.194;0.134;0.068;0.000;0.068;0.134;0.194;0.247;0.291;0.323;0.343;0.350" keyTimes="0.0000;0.0312;0.0625;0.0938;0.1250;0.1562;0.1875;0.2188;0.2500;0.2812;0.3125;0.3438;0.3750;0.4062;0.4375;0.4688;0.5000;0.5312;0.5625;0.5938;0.6250;0.6562;0.6875;0.7188;0.7500;0.7812;0.8125;0.8438;0.8750;0.9062;0.9375;0.9688;1.0000" dur="10s" repeatCount="indefinite" calcMode="linear"/>
        </circle>

        <animateTransform attributeName="transform" type="rotate" values="-28.0;-28.1;-28.5;-29.2;-30.1;-31.1;-32.3;-33.6;-35.0;-36.4;-37.7;-38.9;-39.9;-40.8;-41.5;-41.9;-42.0;-41.9;-41.5;-40.8;-39.9;-38.9;-37.7;-36.4;-35.0;-33.6;-32.3;-31.1;-30.1;-29.2;-28.5;-28.1;-28.0" keyTimes="0.0000;0.0312;0.0625;0.0938;0.1250;0.1562;0.1875;0.2188;0.2500;0.2812;0.3125;0.3438;0.3750;0.4062;0.4375;0.4688;0.5000;0.5312;0.5625;0.5938;0.6250;0.6562;0.6875;0.7188;0.7500;0.7812;0.8125;0.8438;0.8750;0.9062;0.9375;0.9688;1.0000" dur="10s" repeatCount="indefinite" calcMode="linear"/>
      </g>
      <animateTransform attributeName="transform" type="translate" values="151.0,151.0;153.0,153.0;159.0,159.0;168.7,168.7;181.8,181.8;197.7,197.7;215.8,215.8;235.5,235.5;256.0,256.0;276.5,276.5;296.2,296.2;314.3,314.3;330.2,330.2;343.3,343.3;353.0,353.0;359.0,359.0;361.0,361.0;359.0,359.0;353.0,353.0;343.3,343.3;330.2,330.2;314.3,314.3;296.2,296.2;276.5,276.5;256.0,256.0;235.5,235.5;215.8,215.8;197.7,197.7;181.8,181.8;168.7,168.7;159.0,159.0;153.0,153.0;151.0,151.0" keyTimes="0.0000;0.0312;0.0625;0.0938;0.1250;0.1562;0.1875;0.2188;0.2500;0.2812;0.3125;0.3438;0.3750;0.4062;0.4375;0.4688;0.5000;0.5312;0.5625;0.5938;0.6250;0.6562;0.6875;0.7188;0.7500;0.7812;0.8125;0.8438;0.8750;0.9062;0.9375;0.9688;1.0000" dur="10s" repeatCount="indefinite" calcMode="linear"/>
    </g>

    <g>
      <circle cx="0" cy="0" r="28" fill="url(#gh)">
        <animate attributeName="opacity" values="0.450;0.441;0.416;0.374;0.318;0.250;0.172;0.088;0.000;0.088;0.172;0.250;0.318;0.374;0.416;0.441;0.450;0.441;0.416;0.374;0.318;0.250;0.172;0.088;0.000;0.088;0.172;0.250;0.318;0.374;0.416;0.441;0.450" keyTimes="0.0000;0.0312;0.0625;0.0938;0.1250;0.1562;0.1875;0.2188;0.2500;0.2812;0.3125;0.3438;0.3750;0.4062;0.4375;0.4688;0.5000;0.5312;0.5625;0.5938;0.6250;0.6562;0.6875;0.7188;0.7500;0.7812;0.8125;0.8438;0.8750;0.9062;0.9375;0.9688;1.0000" dur="10s" repeatCount="indefinite" calcMode="linear"/>
      </circle>
      <circle cx="0" cy="0" r="18" fill="url(#gh)">
        <animate attributeName="opacity" values="0.300;0.294;0.277;0.249;0.212;0.167;0.115;0.059;0.000;0.059;0.115;0.167;0.212;0.249;0.277;0.294;0.300;0.294;0.277;0.249;0.212;0.167;0.115;0.059;0.000;0.059;0.115;0.167;0.212;0.249;0.277;0.294;0.300" keyTimes="0.0000;0.0312;0.0625;0.0938;0.1250;0.1562;0.1875;0.2188;0.2500;0.2812;0.3125;0.3438;0.3750;0.4062;0.4375;0.4688;0.5000;0.5312;0.5625;0.5938;0.6250;0.6562;0.6875;0.7188;0.7500;0.7812;0.8125;0.8438;0.8750;0.9062;0.9375;0.9688;1.0000" dur="10s" repeatCount="indefinite" calcMode="linear"/>
      </circle>
      <polygon points="0,-22 19,-11 19,11 0,22 -19,11 -19,-11"
               fill="none" stroke="#6858aa" stroke-width="1">
        <animate attributeName="opacity" values="0.220;0.216;0.203;0.183;0.156;0.122;0.084;0.043;0.000;0.043;0.084;0.122;0.156;0.183;0.203;0.216;0.220;0.216;0.203;0.183;0.156;0.122;0.084;0.043;0.000;0.043;0.084;0.122;0.156;0.183;0.203;0.216;0.220" keyTimes="0.0000;0.0312;0.0625;0.0938;0.1250;0.1562;0.1875;0.2188;0.2500;0.2812;0.3125;0.3438;0.3750;0.4062;0.4375;0.4688;0.5000;0.5312;0.5625;0.5938;0.6250;0.6562;0.6875;0.7188;0.7500;0.7812;0.8125;0.8438;0.8750;0.9062;0.9375;0.9688;1.0000" dur="10s" repeatCount="indefinite" calcMode="linear"/>
      </polygon>
      <animateTransform attributeName="transform" type="translate" values="361.0,361.0;359.0,359.0;353.0,353.0;343.3,343.3;330.2,330.2;314.3,314.3;296.2,296.2;276.5,276.5;256.0,256.0;235.5,235.5;215.8,215.8;197.7,197.7;181.8,181.8;168.7,168.7;159.0,159.0;153.0,153.0;151.0,151.0;153.0,153.0;159.0,159.0;168.7,168.7;181.8,181.8;197.7,197.7;215.8,215.8;235.5,235.5;256.0,256.0;276.5,276.5;296.2,296.2;314.3,314.3;330.2,330.2;343.3,343.3;353.0,353.0;359.0,359.0;361.0,361.0" keyTimes="0.0000;0.0312;0.0625;0.0938;0.1250;0.1562;0.1875;0.2188;0.2500;0.2812;0.3125;0.3438;0.3750;0.4062;0.4375;0.4688;0.5000;0.5312;0.5625;0.5938;0.6250;0.6562;0.6875;0.7188;0.7500;0.7812;0.8125;0.8438;0.8750;0.9062;0.9375;0.9688;1.0000" dur="10s" repeatCount="indefinite" calcMode="linear"/>
    </g>
  </g>

  <circle cx="256" cy="256" r="250" fill="url(#bs)"/>
  <circle cx="256" cy="256" r="250" fill="none" stroke="#ccc" stroke-width="1.5"/>
  <circle cx="256" cy="256" r="251" fill="none" stroke="#ddd" stroke-width="0.5" opacity="0.3"/>
</svg>